# xmcd CD database file
#
# Track frame offsets:
#	150
#	17925
#	33975
#
# Disc length: 690 seconds
#
# Revision: 0
# Processed by: cddbd v1.5.1PL0 Copyright (c) Steve Scherf et al.
# Submitted via: CDex 1.51
#
DISCID=1c02b003
DTITLE=ROBOTS - コイビト
DYEAR=1997
DGENRE=Rock
TTITLE0=コイビト
TTITLE1=教会のうた
TTITLE2=コイビト (Instrumental)
EXTD=YEAR: 1997
EXTT0=
EXTT1=
EXTT2=
PLAYORDER=
